<svg width="21" height="22" viewBox="0 0 21 22" fill="none" xmlns="http://www.w3.org/2000/svg">
<path d="M1 9.33335V18.7083C1 19.8589 1.93274 20.7916 3.08333 20.7916H17.6667C18.8173 20.7916 19.75 19.8589 19.75 18.7083V9.33335H1Z" fill="#2F2E41"/>
<path d="M13.5 3.08334V1M13.5 3.08334V5.16667M13.5 3.08334H8.8125M1 9.33335V18.7083C1 19.8589 1.93274 20.7916 3.08333 20.7916H17.6667C18.8173 20.7916 19.75 19.8589 19.75 18.7083V9.33335H1Z" stroke="#2F2E41" stroke-width="1.8125" stroke-linecap="round" stroke-linejoin="round"/>
<path d="M1 9.33325V5.16659C1 4.01599 1.93274 3.08325 3.08333 3.08325H5.16667" stroke="#2F2E41" stroke-width="1.8125" stroke-linecap="round" stroke-linejoin="round"/>
<path d="M5.16675 1V5.16667" stroke="#2F2E41" stroke-width="1.8125" stroke-linecap="round" stroke-linejoin="round"/>
<path d="M19.7501 9.33325V5.16659C19.7501 4.01599 18.8174 3.08325 17.6668 3.08325H17.146" stroke="#2F2E41" stroke-width="1.8125" stroke-linecap="round" stroke-linejoin="round"/>
</svg>
