<svg width="20" height="6" viewBox="0 0 20 6" fill="none" xmlns="http://www.w3.org/2000/svg">
<g clip-path="url(#clip0_78_24)">
<path d="M2.30769 5.25796C3.58219 5.25796 4.61538 4.22477 4.61538 2.95027C4.61538 1.67577 3.58219 0.642578 2.30769 0.642578C1.03319 0.642578 0 1.67577 0 2.95027C0 4.22477 1.03319 5.25796 2.30769 5.25796Z" fill="white"/>
<path d="M9.99983 5.25796C11.2743 5.25796 12.3075 4.22477 12.3075 2.95027C12.3075 1.67577 11.2743 0.642578 9.99983 0.642578C8.72533 0.642578 7.69214 1.67577 7.69214 2.95027C7.69214 4.22477 8.72533 5.25796 9.99983 5.25796Z" fill="white"/>
<path d="M17.6922 5.25796C18.9667 5.25796 19.9999 4.22477 19.9999 2.95027C19.9999 1.67577 18.9667 0.642578 17.6922 0.642578C16.4177 0.642578 15.3845 1.67577 15.3845 2.95027C15.3845 4.22477 16.4177 5.25796 17.6922 5.25796Z" fill="white"/>
</g>
<defs>
<clipPath id="clip0_78_24">
<rect width="20" height="6" fill="white"/>
</clipPath>
</defs>
</svg>
