<svg width="22" height="25" viewBox="0 0 22 25" fill="none" xmlns="http://www.w3.org/2000/svg">
<path d="M21.3415 8.17073C20.061 2.53658 15.1464 0 10.8293 0C10.8293 0 10.8293 0 10.8171 0C6.51217 0 1.58534 2.52439 0.304852 8.15853C-1.12198 14.4512 2.73168 19.7805 6.21949 23.1341C7.51217 24.378 9.17074 25 10.8293 25C12.4878 25 14.1464 24.378 15.4268 23.1341C18.9146 19.7805 22.7683 14.4634 21.3415 8.17073ZM10.8293 14.2805C8.70733 14.2805 6.98778 12.561 6.98778 10.439C6.98778 8.31707 8.70733 6.59756 10.8293 6.59756C12.9512 6.59756 14.6707 8.31707 14.6707 10.439C14.6707 12.561 12.9512 14.2805 10.8293 14.2805Z" fill="#2F2E41"/>
</svg>
