<svg width="21" height="21" viewBox="0 0 21 21" fill="none" xmlns="http://www.w3.org/2000/svg">
<path fill-rule="evenodd" clip-rule="evenodd" d="M10.4167 20.8333C16.1697 20.8333 20.8334 16.1696 20.8334 10.4167C20.8334 4.6637 16.1697 0 10.4167 0C4.6637 0 0 4.6637 0 10.4167C0 16.1696 4.6637 20.8333 10.4167 20.8333ZM10.4165 3.38535C10.848 3.38535 11.1977 3.73512 11.1977 4.16659V5.46865H14.5832C15.0147 5.46865 15.3645 5.81842 15.3645 6.24988C15.3645 6.68134 15.0147 7.03111 14.5832 7.03111H11.1977V9.63529H12.4999C13.2596 9.63529 13.9883 9.93709 14.5255 10.4743C15.0627 11.0115 15.3645 11.7402 15.3645 12.4999C15.3645 13.2596 15.0627 13.9882 14.5255 14.5254C13.9883 15.0627 13.2596 15.3645 12.4999 15.3645H11.1977V16.6666C11.1977 17.0981 10.848 17.4478 10.4165 17.4478C9.98497 17.4478 9.63527 17.0981 9.63527 16.6666V15.3645H6.24988C5.81841 15.3645 5.46864 15.0147 5.46864 14.5832C5.46864 14.1518 5.81841 13.802 6.24988 13.802H9.63527V11.1978H8.33317C7.57348 11.1978 6.84487 10.896 6.30766 10.3588C5.77045 9.82159 5.46864 9.09299 5.46864 8.33319C5.46864 7.57349 5.77045 6.84487 6.30766 6.30766C6.84487 5.77045 7.57348 5.46865 8.33317 5.46865H9.63527V4.16659C9.63527 3.73512 9.98497 3.38535 10.4165 3.38535ZM8.33317 7.03111H9.63527V9.63529H8.33317C7.98787 9.63529 7.65668 9.49809 7.41249 9.25389C7.1683 9.00979 7.03111 8.67859 7.03111 8.33319C7.03111 7.98789 7.1683 7.65669 7.41249 7.41249C7.65668 7.1683 7.98787 7.03111 8.33317 7.03111ZM11.1977 13.802V11.1978H12.4999C12.8452 11.1978 13.1764 11.335 13.4206 11.5792C13.6648 11.8234 13.802 12.1546 13.802 12.4999C13.802 12.8452 13.6648 13.1764 13.4206 13.4206C13.1764 13.6648 12.8452 13.802 12.4999 13.802H11.1977Z" fill="#2F2E41"/>
</svg>
