<svg width="23" height="16" viewBox="0 0 23 16" fill="none" xmlns="http://www.w3.org/2000/svg">
<path fill-rule="evenodd" clip-rule="evenodd" d="M2.39052 5.56372C1.75652 4.92212 0.896619 4.56172 0 4.56172V2.28084C0 1.67593 0.237454 1.09579 0.660129 0.66805C1.0828 0.24031 1.65606 0 2.25381 0H20.2843C20.882 0 21.4553 0.24031 21.878 0.66805C22.3006 1.09579 22.5381 1.67593 22.5381 2.28084V4.56172C21.6415 4.56172 20.7816 4.92212 20.1476 5.56372C19.5136 6.20532 19.1574 7.07552 19.1574 7.98292C19.1574 8.89032 19.5136 9.76052 20.1476 10.4021C20.7816 11.0437 21.6415 11.4042 22.5381 11.4042V13.685C22.5381 14.2899 22.3006 14.8701 21.878 15.2978C21.4553 15.7255 20.882 15.9658 20.2843 15.9658H2.25381C1.65606 15.9658 1.0828 15.7255 0.660129 15.2978C0.237454 14.8701 0 14.2899 0 13.685V11.4042C0.896619 11.4042 1.75652 11.0437 2.39052 10.4021C3.02453 9.76052 3.38071 8.89032 3.38071 7.98292C3.38071 7.07552 3.02453 6.20532 2.39052 5.56372ZM12.9665 0.8107V0.23998H11.825V0.8107V2.26958C11.825 2.58478 12.0805 2.8403 12.3957 2.8403C12.7109 2.8403 12.9665 2.58478 12.9665 2.26958V0.8107ZM12.3968 13.1154C12.712 13.116 12.967 13.372 12.9665 13.6872L12.9638 15.1461L12.9627 15.7168L11.8213 15.7147L11.8223 15.144L11.825 13.6851C11.8256 13.3699 12.0816 13.1149 12.3968 13.1154ZM12.9665 6.84312C12.9665 6.52792 12.7109 6.27242 12.3957 6.27242C12.0805 6.27242 11.825 6.52792 11.825 6.84312V9.12442C11.825 9.43962 12.0805 9.69512 12.3957 9.69512C12.7109 9.69512 12.9665 9.43962 12.9665 9.12442V6.84312Z" fill="#2F2E41"/>
</svg>
